<svg width="170" height="49" viewBox="0 0 170 49" fill="none" xmlns="http://www.w3.org/2000/svg">
<path d="M56.9595 9.21597C58.7782 9.21597 59.6875 8.77597 59.6875 7.89597C59.6875 7.45597 59.8342 7.23597 60.1275 7.23597C60.4502 7.23597 60.6115 7.60264 60.6115 8.33597C60.6115 9.03997 60.2009 9.58264 59.3795 9.96397C58.5582 10.3453 57.8249 10.536 57.1795 10.536C56.5635 10.536 56.0502 10.5066 55.6395 10.448C51.3275 9.89064 47.6315 8.95197 44.5515 7.63197C42.4689 10.9173 40.6062 15.288 38.9635 20.744C38.3475 22.7093 37.4675 24.836 36.3235 27.124C35.2089 29.412 33.9915 31.304 32.6715 32.8C31.3809 34.2666 29.8849 35.4693 28.1835 36.408C24.8395 38.2266 20.8942 39.136 16.3475 39.136C12.6515 39.136 9.19021 38.2266 5.96354 36.408C2.79554 34.6186 0.947543 31.8613 0.419543 28.136C0.360876 27.6373 0.331543 26.904 0.331543 25.936C0.331543 24.9386 0.61021 23.5306 1.16754 21.712C1.75421 19.8933 2.83954 18.5146 4.42354 17.576C5.06888 17.1946 5.55288 17.004 5.87554 17.004C6.40354 17.004 6.63821 17.2533 6.57954 17.752C6.46221 17.8986 6.15421 18.148 5.65554 18.5C5.18621 18.8226 4.73154 19.1746 4.29154 19.556C3.85154 19.908 3.41154 20.4653 2.97154 21.228C2.20888 22.5186 1.82754 23.9706 1.82754 25.584C1.82754 29.28 3.08888 32.1253 5.61154 34.12C6.96088 35.2346 8.47154 36.0853 10.1435 36.672C11.8155 37.2586 13.4875 37.552 15.1595 37.552C15.2182 37.552 15.2915 37.552 15.3795 37.552C21.4515 37.4053 26.4382 35.2053 30.3395 30.952C32.8035 28.2826 36.1769 22.2546 40.4595 12.868C41.9262 9.6413 42.8649 7.7493 43.2755 7.19197C38.0835 5.5493 33.4195 4.72797 29.2835 4.72797C25.1475 4.72797 21.7889 5.97464 19.2075 8.46797C17.1249 10.4626 16.0835 12.5453 16.0835 14.716C16.0835 17.092 17.1249 18.6026 19.2075 19.248C19.9409 19.4533 20.6009 19.556 21.1875 19.556C21.8035 19.556 22.4929 19.4533 23.2555 19.248C24.0475 19.0133 24.7955 18.5586 25.4995 17.884C26.2329 17.18 26.7755 16.4906 27.1275 15.816C27.5089 15.1413 27.6702 14.628 27.6115 14.276V14.188C27.8462 13.9826 28.0515 13.924 28.2275 14.012C28.4035 14.0706 28.4915 14.2466 28.4915 14.54C28.1982 16.828 27.0395 18.544 25.0155 19.688C23.7835 20.4213 22.6395 20.788 21.5835 20.788C20.5275 20.788 19.5889 20.6413 18.7675 20.348C16.3622 19.4973 14.8369 17.8693 14.1915 15.464C13.9862 14.7013 13.8835 13.9533 13.8835 13.22C13.8835 11.46 14.4262 9.74397 15.5115 8.07197C17.4475 5.07997 20.4835 3.27597 24.6195 2.65997C25.5582 2.5133 26.4529 2.43997 27.3035 2.43997C28.1542 2.43997 29.1369 2.48397 30.2515 2.57197C31.3955 2.65997 32.8915 2.9533 34.7395 3.45197C36.6169 3.95064 38.5235 4.5373 40.4595 5.21197C42.4249 5.8573 43.5982 6.23864 43.9795 6.35597C45.4169 4.59597 46.4875 3.7013 47.1915 3.67197C47.3382 3.6133 47.5289 3.58397 47.7635 3.58397C48.0275 3.58397 48.2329 3.7893 48.3795 4.19997C48.5262 4.61064 48.4235 4.87464 48.0715 4.99197C47.9249 5.0213 47.7342 5.00664 47.4995 4.94797C47.3235 4.83064 46.9569 5.0213 46.3995 5.51997C45.8715 5.9893 45.4755 6.3853 45.2115 6.70797C47.9689 7.58797 50.3889 8.2333 52.4715 8.64397C54.5542 9.0253 56.0502 9.21597 56.9595 9.21597Z" fill="#941007"/>
<path d="M55.2862 23.076C54.7582 23.604 54.0102 24.8066 53.0422 26.684C52.0742 28.532 51.4875 29.9253 51.2822 30.864C51.1062 31.7733 51.0182 32.5213 51.0182 33.108C51.0182 33.6653 51.2382 33.944 51.6782 33.944C52.2355 33.944 52.9248 33.4306 53.7462 32.404C54.9488 30.908 56.1368 28.9573 57.3102 26.552C57.4275 26.288 57.5595 26.1413 57.7062 26.112C57.9408 26.024 58.0582 26.112 58.0582 26.376C58.0582 26.5226 58.0142 26.6986 57.9262 26.904C55.2275 32.36 52.9542 35.088 51.1062 35.088C50.2555 35.088 49.5662 34.6773 49.0382 33.856C48.7742 33.416 48.6422 32.8293 48.6422 32.096C48.6422 31.3626 48.7888 30.468 49.0822 29.412C46.7355 33.196 44.7115 35.088 43.0102 35.088C42.5408 35.088 42.1155 34.9413 41.7342 34.648C40.8542 34.032 40.4142 32.976 40.4142 31.48C40.4142 28.6053 41.6608 25.6866 44.1542 22.724C45.5622 21.0813 47.2928 20.0106 49.3462 19.512C49.9035 19.3653 50.4315 19.292 50.9302 19.292C52.2795 19.292 53.4235 19.7613 54.3622 20.7C54.6555 21.0226 54.7435 21.3306 54.6262 21.624C54.5088 21.9173 54.2595 22.0346 53.8782 21.976C53.5555 20.92 52.8515 20.392 51.7662 20.392C50.5048 20.392 48.9502 21.3893 47.1022 23.384C46.0462 24.5573 45.0635 25.936 44.1542 27.52C43.0102 29.4266 42.4382 30.952 42.4382 32.096C42.4382 33.24 42.8048 33.812 43.5382 33.812C45.2982 33.812 47.6008 31.1133 50.4462 25.716C51.0035 24.6306 51.4728 23.8973 51.8542 23.516C52.2355 23.1053 52.7195 22.9 53.3062 22.9C53.4235 22.9 53.7168 22.944 54.1862 23.032C54.6848 23.12 55.0515 23.1346 55.2862 23.076Z" fill="#941007"/>
<path d="M61.077 34.164C61.4583 34.2226 61.7223 34.252 61.869 34.252C63.0423 34.252 64.201 33.5626 65.345 32.184C65.961 31.4213 67.061 29.5 68.645 26.42C68.7036 26.2733 68.8063 26.2 68.953 26.2C69.217 26.1706 69.349 26.2733 69.349 26.508C69.349 26.5666 69.2756 26.7426 69.129 27.036C69.0116 27.3 68.8943 27.5786 68.777 27.872C68.6596 28.136 68.469 28.532 68.205 29.06C67.941 29.588 67.7063 30.0133 67.501 30.336C67.325 30.6586 67.0903 31.0546 66.797 31.524C66.5036 31.9933 66.2103 32.36 65.917 32.624L64.993 33.592C64.4943 34.0906 63.9076 34.4426 63.233 34.648C62.1476 35 61.0916 35.0293 60.065 34.736C59.3903 35.0293 58.789 35.176 58.261 35.176C56.1783 35.176 54.917 34.3546 54.477 32.712C54.389 32.3306 54.345 31.876 54.345 31.348C54.345 30.7906 54.521 30.2626 54.873 29.764C55.2543 29.2653 55.6503 29.0013 56.061 28.972C57.557 26.1266 58.833 23.56 59.889 21.272C61.0623 18.7786 62.4263 17.532 63.981 17.532C64.3916 17.532 64.7876 17.6346 65.169 17.84C65.5796 18.016 65.7263 18.2213 65.609 18.456C65.521 18.6906 65.3156 18.7346 64.993 18.588C64.6703 18.4413 64.3916 18.368 64.157 18.368C63.9223 18.368 63.717 18.412 63.541 18.5C62.5436 18.9693 62.045 19.9813 62.045 21.536C62.045 22.3573 62.1623 23.032 62.397 23.56C62.6316 24.088 62.8956 24.66 63.189 25.276C63.8636 26.8013 64.201 28.048 64.201 29.016C64.201 29.984 63.893 30.9373 63.277 31.876C62.661 32.8146 61.9276 33.5773 61.077 34.164ZM59.581 33.856C60.8716 32.8586 61.517 31.2453 61.517 29.016C61.517 28.1066 61.4143 26.86 61.209 25.276C61.0036 23.692 60.901 22.6213 60.901 22.064C60.901 21.5066 60.9156 21.1253 60.945 20.92C58.7156 25.3786 57.337 28.092 56.809 29.06C57.425 29.06 57.733 29.5 57.733 30.38C57.733 32.1106 58.349 33.2693 59.581 33.856ZM56.281 32.668C56.281 32.844 56.2956 33.0346 56.325 33.24C56.5596 34.032 57.1023 34.428 57.953 34.428C58.305 34.428 58.5983 34.3693 58.833 34.252C57.7476 33.5773 57.161 32.4773 57.073 30.952C56.545 31.48 56.281 32.052 56.281 32.668Z" fill="#941007"/>
<path d="M67.4508 31.48C67.4508 29.0453 68.6241 24.968 70.9708 19.248H68.6828C68.5361 19.248 68.4335 19.1746 68.3748 19.028C68.3455 18.852 68.3601 18.6906 68.4188 18.544C68.5068 18.368 68.6241 18.28 68.7708 18.28H71.4108C72.4668 15.9626 73.4495 14.0266 74.3588 12.472C75.2681 10.9173 76.1041 9.87597 76.8668 9.34797C77.6295 8.79064 78.1721 8.51197 78.4948 8.51197C78.8468 8.51197 79.0961 8.5413 79.2428 8.59997C79.9175 8.92264 80.2548 9.5973 80.2548 10.624C80.2548 11.6213 79.9175 12.8386 79.2428 14.276C78.5681 15.7133 77.9081 17.048 77.2628 18.28H79.3748C79.5215 18.28 79.6095 18.368 79.6388 18.544C79.6975 18.6906 79.6828 18.852 79.5948 19.028C79.5361 19.1746 79.4335 19.248 79.2868 19.248H76.7348C75.1215 21.976 73.1708 24.396 70.8828 26.508L69.8708 30.996C69.7828 31.3773 69.7388 31.7586 69.7388 32.14C69.7388 32.492 69.8415 32.8586 70.0468 33.24C70.2521 33.6213 70.5748 33.812 71.0148 33.812C71.5135 33.812 72.0708 33.636 72.6868 33.284C74.0948 32.228 75.6495 30.0133 77.3508 26.64C77.4681 26.376 77.6001 26.2146 77.7468 26.156C77.9228 26.0973 78.0255 26.1413 78.0548 26.288C78.0841 26.4053 78.0401 26.6106 77.9228 26.904C76.9548 28.928 76.1921 30.3653 75.6348 31.216C74.0508 33.768 72.3641 35.044 70.5748 35.044C69.6655 35.044 68.9175 34.7066 68.3308 34.032C67.7441 33.3573 67.4508 32.5066 67.4508 31.48ZM76.2948 18.28C78.2308 14.8186 79.1988 12.4133 79.1988 11.064C79.1988 10.4773 79.0961 10.184 78.8908 10.184C78.5681 10.184 78.0695 10.6533 77.3948 11.592C76.7495 12.5306 75.6495 14.76 74.0948 18.28H76.2948ZM75.7228 19.248H73.6548C73.3028 20.0693 72.5108 22.02 71.2788 25.1C72.8628 23.4573 74.3441 21.5066 75.7228 19.248Z" fill="#941007"/>
<path d="M71.2874 48.904C69.9967 48.904 68.9994 48.6253 68.2954 48.068C67.5914 47.54 67.2394 46.8946 67.2394 46.132C67.2394 45.3693 67.4594 44.504 67.8994 43.536C68.6621 42.04 70.0407 40.8373 72.0354 39.928C73.5314 39.224 75.5114 38.564 77.9754 37.948C80.4394 37.3613 82.0234 36.9653 82.7274 36.76C83.7834 34.912 85.0447 31.612 86.5114 26.86C84.8101 29.852 83.3874 31.9493 82.2434 33.152C81.0994 34.3546 79.9407 34.956 78.7674 34.956C77.1834 34.956 76.2594 34.296 75.9954 32.976C75.8781 32.7706 75.8487 32.4626 75.9074 32.052C75.9661 31.6413 75.9954 31.348 75.9954 31.172C76.0247 30.996 76.1274 30.7173 76.3034 30.336C76.4794 29.9253 76.5967 29.632 76.6554 29.456C76.9781 28.7813 77.2567 28.2533 77.4914 27.872C77.0221 27.872 76.8901 27.6373 77.0954 27.168L77.8874 25.628C78.8847 23.7213 79.7061 22.108 80.3514 20.788C80.6447 20.172 81.2167 19.864 82.0674 19.864H84.7514C84.6927 19.9226 84.5461 20.04 84.3114 20.216C83.7834 20.568 83.3874 20.9786 83.1234 21.448C82.0674 23.2666 80.7474 25.8626 79.1634 29.236C78.5181 30.6146 78.1954 31.6266 78.1954 32.272C78.1954 32.9173 78.2981 33.372 78.5034 33.636C78.7381 33.9 79.0461 34.032 79.4274 34.032C79.9847 34.032 80.7621 33.4453 81.7594 32.272C83.8421 29.8373 86.1447 26.0093 88.6674 20.788C88.9901 20.172 89.5621 19.864 90.3834 19.864H92.7594C91.9967 20.392 91.3954 21.0666 90.9554 21.888C90.5154 22.68 90.0314 23.7653 89.5034 25.144C89.0047 26.5226 88.3594 28.356 87.5674 30.644C86.8047 32.932 86.2181 34.648 85.8074 35.792C88.5647 34.9706 90.6767 33.5186 92.1434 31.436C92.7887 30.5266 93.7127 28.9133 94.9154 26.596C95.1207 26.1853 95.2967 26.024 95.4434 26.112C95.6194 26.2 95.7074 26.3173 95.7074 26.464C95.7074 26.6106 95.4581 27.1826 94.9594 28.18C94.4901 29.148 94.0061 30.0573 93.5074 30.908C93.0087 31.7293 92.3634 32.58 91.5714 33.46C90.7794 34.34 89.8994 35.0293 88.9314 35.528C87.9634 36.056 86.6727 36.6133 85.0594 37.2C82.8007 41.3066 80.5274 44.328 78.2394 46.264C76.0981 48.024 73.7807 48.904 71.2874 48.904ZM68.7354 44.548C68.4127 45.1933 68.2514 45.78 68.2514 46.308C68.2514 46.8653 68.4567 47.2906 68.8674 47.584C69.2781 47.8773 69.7914 48.024 70.4074 48.024C72.1087 48.024 73.9274 47.144 75.8634 45.384C77.7994 43.6533 79.5007 41.7906 80.9674 39.796L81.9354 38.168C77.0954 39.4293 74.0447 40.3386 72.7834 40.896C70.9061 41.7173 69.5567 42.9346 68.7354 44.548Z" fill="#941007"/>
<path d="M116.098 33.944C112.842 36.4373 109.542 37.684 106.198 37.684C102.678 37.684 100.111 36.3786 98.4976 33.768C97.3536 31.8613 96.7816 29.7493 96.7816 27.432C96.7816 25.0853 97.2069 22.7533 98.0576 20.436C96.0043 19.0573 94.8749 17.2093 94.6696 14.892C94.6109 14.452 94.5816 14.012 94.5816 13.572C94.5816 10.052 96.0923 7.10397 99.1136 4.72797C102.34 2.2053 106.154 0.94397 110.554 0.94397C114.954 0.94397 118.591 2.17597 121.466 4.63997C124.37 7.07464 125.822 10.5653 125.822 15.112C125.822 15.4053 125.822 15.6986 125.822 15.992C128.755 14.056 130.662 12.208 131.542 10.448C131.688 10.1253 131.879 9.9933 132.114 10.052C132.348 10.0813 132.466 10.1693 132.466 10.316C132.466 10.4626 132.378 10.668 132.202 10.932C130.471 13.66 128.286 15.86 125.646 17.532C125.528 18.9106 125.147 20.568 124.502 22.504C123.886 24.44 122.83 26.4493 121.334 28.532C119.838 30.5853 118.092 32.3893 116.098 33.944ZM123.226 15.068C123.226 10.1106 121.642 6.44397 118.474 4.06797C116.362 2.48397 113.898 1.69197 111.082 1.69197C110.26 1.69197 109.424 1.7653 108.574 1.91197C104.995 2.43997 102.076 3.9213 99.8176 6.35597C97.9109 8.46797 96.9576 10.8586 96.9576 13.528C96.9576 15.8453 97.5883 17.5466 98.8496 18.632C99.9936 16.1973 101.68 13.7333 103.91 11.24C106.344 8.51197 108.911 6.83997 111.61 6.22397C112.05 6.13597 112.607 6.09197 113.282 6.09197C113.986 6.09197 114.792 6.37064 115.702 6.92797C115.907 7.0453 116.01 7.16264 116.01 7.27997C116.039 7.3973 115.98 7.4853 115.834 7.54397C115.687 7.60264 115.467 7.58797 115.174 7.49997C114.88 7.38264 114.382 7.32397 113.678 7.32397C113.003 7.32397 112.02 7.67597 110.73 8.37997C109.439 9.08397 108.134 10.184 106.814 11.68C104.203 14.6426 102.296 17.4586 101.094 20.128C102.942 20.9786 105.156 21.404 107.738 21.404C108.882 21.404 110.099 21.3306 111.39 21.184C115.584 20.6266 119.5 19.3653 123.138 17.4C123.196 16.608 123.226 15.8306 123.226 15.068ZM122.874 18.94C117.975 21.5506 112.812 22.856 107.386 22.856C104.746 22.856 102.428 22.46 100.434 21.668C99.5243 24.044 99.0696 26.0973 99.0696 27.828C99.0696 31.876 100.287 34.5013 102.722 35.704C104.042 36.32 105.347 36.628 106.638 36.628C107.958 36.628 109.234 36.3493 110.466 35.792C113.047 34.6186 115.364 32.7853 117.418 30.292C119.471 27.7986 121.026 25.056 122.082 22.064C122.492 20.8906 122.756 19.8493 122.874 18.94Z" fill="#941007"/>
<path d="M140.147 20.568C136.539 26.904 134.735 31.04 134.735 32.976C134.735 33.7386 135.014 34.12 135.571 34.12C137.067 34.12 139.077 31.5826 141.599 26.508C141.775 26.0973 141.951 25.936 142.127 26.024C142.303 26.112 142.391 26.2293 142.391 26.376C142.391 26.5226 142.333 26.6986 142.215 26.904C140.661 30.0426 139.341 32.2133 138.255 33.416C137.199 34.5893 136.129 35.176 135.043 35.176C133.987 35.176 133.181 34.7653 132.623 33.944C132.33 33.5626 132.183 33.0493 132.183 32.404C132.183 31.7293 132.33 30.9226 132.623 29.984C132.917 29.0453 133.723 27.52 135.043 25.408C135.366 24.88 135.527 24.4693 135.527 24.176C135.527 23.8533 135.278 23.692 134.779 23.692C134.281 23.692 133.327 24.352 131.919 25.672C129.807 27.608 127.769 30.512 125.803 34.384C125.627 34.6773 125.422 34.868 125.187 34.956C124.982 35.0146 124.557 35.0586 123.911 35.088C123.266 35.1173 122.841 35.1906 122.635 35.308C123.105 34.3693 124.029 32.448 125.407 29.544C127.871 24.4106 129.485 21.4773 130.247 20.744C130.599 20.392 131.083 20.216 131.699 20.216C131.817 20.216 132.11 20.26 132.579 20.348C133.078 20.436 133.445 20.4506 133.679 20.392C132.594 20.9786 130.819 23.736 128.355 28.664C129.734 26.9626 130.981 25.6133 132.095 24.616C133.239 23.5893 134.603 22.6506 136.187 21.8C137.771 20.92 138.93 20.48 139.663 20.48C139.839 20.48 140.001 20.5093 140.147 20.568Z" fill="#941007"/>
<path d="M144.018 26.508C143.988 26.6253 143.856 27.036 143.622 27.74C143.387 28.4146 143.182 29.0746 143.006 29.72C142.859 30.336 142.786 30.9666 142.786 31.612C142.786 32.228 142.932 32.8146 143.226 33.372C143.519 33.9 143.988 34.164 144.634 34.164C145.69 34.164 146.716 33.46 147.714 32.052C148.711 30.6146 149.767 28.796 150.882 26.596C151.116 26.1853 151.336 26.024 151.542 26.112C151.688 26.2293 151.718 26.3906 151.63 26.596C151.542 26.772 151.351 27.1826 151.058 27.828C150.794 28.444 150.588 28.884 150.442 29.148C150.324 29.3826 150.09 29.8226 149.738 30.468C149.415 31.084 149.122 31.5533 148.858 31.876C148.623 32.1693 148.286 32.5653 147.846 33.064C147.435 33.5333 147.039 33.8853 146.658 34.12C145.631 34.7653 144.663 35.088 143.754 35.088C142.844 35.088 142.14 34.8973 141.642 34.516C141.143 34.1053 140.835 33.68 140.718 33.24C140.63 32.7706 140.586 32.36 140.586 32.008C140.586 31.656 140.6 31.2013 140.63 30.644C140.718 29.7053 140.894 28.796 141.158 27.916C141.451 27.036 141.612 26.5373 141.642 26.42C142.316 23.9853 143.27 21.3306 144.502 18.456C145.763 15.5813 146.819 13.4253 147.67 11.988C148.55 10.5213 149.239 9.52397 149.738 8.99597C150.735 7.93997 151.718 7.41197 152.686 7.41197C153.36 7.41197 153.815 7.89597 154.05 8.86397C154.079 9.03997 154.094 9.25997 154.094 9.52397C154.094 10.5213 153.742 11.7826 153.038 13.308C150.515 18.9106 147.508 23.3106 144.018 26.508ZM144.37 25.1C145.866 23.5746 147.347 21.6533 148.814 19.336C150.28 17.0186 151.351 15.0533 152.026 13.44C152.73 11.7973 153.082 10.6826 153.082 10.096C153.082 9.5093 152.979 9.21597 152.774 9.21597C152.48 9.21597 151.923 9.80264 151.102 10.976C150.28 12.12 149.166 14.2026 147.758 17.224C146.379 20.216 145.25 22.8413 144.37 25.1Z" fill="#941007"/>
<path d="M144.85 48.904C143.559 48.904 142.562 48.6253 141.858 48.068C141.154 47.54 140.802 46.8946 140.802 46.132C140.802 45.3693 141.022 44.504 141.462 43.536C142.225 42.04 143.603 40.8373 145.598 39.928C147.094 39.224 149.074 38.564 151.538 37.948C154.002 37.3613 155.586 36.9653 156.29 36.76C157.346 34.912 158.607 31.612 160.074 26.86C158.373 29.852 156.95 31.9493 155.806 33.152C154.662 34.3546 153.503 34.956 152.33 34.956C150.746 34.956 149.822 34.296 149.558 32.976C149.441 32.7706 149.411 32.4626 149.47 32.052C149.529 31.6413 149.558 31.348 149.558 31.172C149.587 30.996 149.69 30.7173 149.866 30.336C150.042 29.9253 150.159 29.632 150.218 29.456C150.541 28.7813 150.819 28.2533 151.054 27.872C150.585 27.872 150.453 27.6373 150.658 27.168L151.45 25.628C152.447 23.7213 153.269 22.108 153.914 20.788C154.207 20.172 154.779 19.864 155.63 19.864H158.314C158.255 19.9226 158.109 20.04 157.874 20.216C157.346 20.568 156.95 20.9786 156.686 21.448C155.63 23.2666 154.31 25.8626 152.726 29.236C152.081 30.6146 151.758 31.6266 151.758 32.272C151.758 32.9173 151.861 33.372 152.066 33.636C152.301 33.9 152.609 34.032 152.99 34.032C153.547 34.032 154.325 33.4453 155.322 32.272C157.405 29.8373 159.707 26.0093 162.23 20.788C162.553 20.172 163.125 19.864 163.946 19.864H166.322C165.559 20.392 164.958 21.0666 164.518 21.888C164.078 22.68 163.594 23.7653 163.066 25.144C162.567 26.5226 161.922 28.356 161.13 30.644C160.367 32.932 159.781 34.648 159.37 35.792C162.127 34.9706 164.239 33.5186 165.706 31.436C166.351 30.5266 167.275 28.9133 168.478 26.596C168.683 26.1853 168.859 26.024 169.006 26.112C169.182 26.2 169.27 26.3173 169.27 26.464C169.27 26.6106 169.021 27.1826 168.522 28.18C168.053 29.148 167.569 30.0573 167.07 30.908C166.571 31.7293 165.926 32.58 165.134 33.46C164.342 34.34 163.462 35.0293 162.494 35.528C161.526 36.056 160.235 36.6133 158.622 37.2C156.363 41.3066 154.09 44.328 151.802 46.264C149.661 48.024 147.343 48.904 144.85 48.904ZM142.298 44.548C141.975 45.1933 141.814 45.78 141.814 46.308C141.814 46.8653 142.019 47.2906 142.43 47.584C142.841 47.8773 143.354 48.024 143.97 48.024C145.671 48.024 147.49 47.144 149.426 45.384C151.362 43.6533 153.063 41.7906 154.53 39.796L155.498 38.168C150.658 39.4293 147.607 40.3386 146.346 40.896C144.469 41.7173 143.119 42.9346 142.298 44.548Z" fill="#941007"/>
</svg>
